<?xml version="1.0" encoding="UTF-8"?>
<!DOCTYPE svg PUBLIC "-//W3C//DTD SVG 1.1//EN" "http://www.w3.org/Graphics/SVG/1.1/DTD/svg11.dtd">
<svg xmlns="http://www.w3.org/2000/svg" version="1.1" width="2065px" height="674px" style="shape-rendering:geometricPrecision; text-rendering:geometricPrecision; image-rendering:optimizeQuality; fill-rule:evenodd; clip-rule:evenodd" xmlns:xlink="http://www.w3.org/1999/xlink">
<g><path style="opacity:0.987" fill="#fefffe" d="M 1904.5,50.5 C 1928.26,49.2041 1951.26,52.7041 1973.5,61C 2006.95,77.6637 2023.95,104.83 2024.5,142.5C 1998.82,142.833 1973.16,142.5 1947.5,141.5C 1942.52,132.358 1935.19,125.858 1925.5,122C 1902.28,114.924 1881.28,118.924 1862.5,134C 1850.71,145.31 1847.88,158.477 1854,173.5C 1859.71,180.105 1866.87,184.272 1875.5,186C 1896.61,189.822 1917.61,194.155 1938.5,199C 1991.18,216.193 2012.02,252.026 2001,306.5C 1985.01,354.101 1952.84,384.934 1904.5,399C 1869.53,408.376 1834.86,407.376 1800.5,396C 1759.79,378.781 1738.79,347.947 1737.5,303.5C 1762.84,303.333 1788.17,303.5 1813.5,304C 1822.7,325.133 1839.04,336.133 1862.5,337C 1884.38,339.75 1902.88,333.25 1918,317.5C 1930.72,293.78 1924.22,277.946 1898.5,270C 1877.44,265.922 1856.44,261.589 1835.5,257C 1786.24,240.654 1766.07,206.82 1775,155.5C 1784.08,120.43 1803.91,93.2638 1834.5,74C 1856.23,61.0341 1879.57,53.2008 1904.5,50.5 Z"/></g>
<g><path style="opacity:0.986" fill="#fefffe" d="M 48.5,57.5 C 139.167,57.5 229.833,57.5 320.5,57.5C 315.629,81.8569 310.629,106.19 305.5,130.5C 281.498,130.667 257.498,130.5 233.5,130C 216.962,106.426 200.795,82.5929 185,58.5C 159.833,82.3333 134.667,106.167 109.5,130C 83.8333,130.667 58.1667,130.667 32.5,130C 38.0642,105.907 43.3976,81.7406 48.5,57.5 Z"/></g>
<g><path style="opacity:0.983" fill="#fefffe" d="M 435.5,57.5 C 461.167,57.5 486.833,57.5 512.5,57.5C 497.207,146.429 481.54,235.262 465.5,324C 514.166,324.5 562.832,324.667 611.5,324.5C 607.717,349.198 603.717,373.865 599.5,398.5C 525.167,398.5 450.833,398.5 376.5,398.5C 396.059,284.814 415.725,171.147 435.5,57.5 Z"/></g>
<g><path style="opacity:0.984" fill="#fefffe" d="M 693.5,57.5 C 765.5,57.5 837.5,57.5 909.5,57.5C 905.5,81.8333 901.5,106.167 897.5,130.5C 850.833,130.5 804.167,130.5 757.5,130.5C 754.264,151.247 750.598,171.914 746.5,192.5C 788.495,193.5 830.495,193.833 872.5,193.5C 868.833,216.167 865.167,238.833 861.5,261.5C 819.167,261.5 776.833,261.5 734.5,261.5C 730.833,282.833 727.167,304.167 723.5,325.5C 769.833,325.5 816.167,325.5 862.5,325.5C 858.759,349.874 854.759,374.207 850.5,398.5C 778.164,398.833 705.83,398.5 633.5,397.5C 653.931,284.245 673.931,170.912 693.5,57.5 Z"/></g>
<g><path style="opacity:0.985" fill="#fefffe" d="M 936.5,57.5 C 964.508,57.1669 992.508,57.5002 1020.5,58.5C 1033.72,136.848 1047.06,215.181 1060.5,293.5C 1101.51,215.48 1142.01,137.147 1182,58.5C 1209.09,57.505 1236.26,57.1717 1263.5,57.5C 1203.05,171.055 1142.05,284.388 1080.5,397.5C 1053.93,398.827 1027.43,398.827 1001,397.5C 979.305,284.191 957.805,170.857 936.5,57.5 Z"/></g>
<g><path style="opacity:0.984" fill="#fefffe" d="M 1292.5,57.5 C 1364.5,57.5 1436.5,57.5 1508.5,57.5C 1504.42,81.5482 1500.09,105.548 1495.5,129.5C 1449.17,130.167 1402.83,130.833 1356.5,131.5C 1352.58,152.118 1348.91,172.784 1345.5,193.5C 1387.5,193.5 1429.5,193.5 1471.5,193.5C 1467.82,215.895 1463.82,238.228 1459.5,260.5C 1417.5,261.167 1375.5,261.833 1333.5,262.5C 1329.29,283.402 1325.63,304.402 1322.5,325.5C 1368.83,325.5 1415.17,325.5 1461.5,325.5C 1457.39,349.819 1453.39,374.152 1449.5,398.5C 1377.17,398.5 1304.83,398.5 1232.5,398.5C 1252.39,284.813 1272.39,171.146 1292.5,57.5 Z"/></g>
<g><path style="opacity:0.983" fill="#fefffe" d="M 1536.5,57.5 C 1562.17,57.5 1587.83,57.5 1613.5,57.5C 1598.05,146.208 1582.38,234.875 1566.5,323.5C 1615.16,324.5 1663.83,324.833 1712.5,324.5C 1708.5,349.167 1704.5,373.833 1700.5,398.5C 1625.83,398.833 1551.16,398.5 1476.5,397.5C 1496.93,284.245 1516.93,170.912 1536.5,57.5 Z"/></g>
<g><path style="opacity:0.987" fill="#fefffe" d="M 132.5,132.5 C 158.167,132.5 183.833,132.5 209.5,132.5C 190.705,221.14 172.039,309.807 153.5,398.5C 127.833,398.5 102.167,398.5 76.5,398.5C 94.5414,309.672 113.208,221.006 132.5,132.5 Z"/></g>
<g><path style="opacity:0.984" fill="#fefffe" d="M 250.5,200.5 C 285.5,200.5 320.5,200.5 355.5,200.5C 351.617,221.795 347.951,243.129 344.5,264.5C 309.498,264.667 274.498,264.5 239.5,264C 243.74,242.961 247.407,221.795 250.5,200.5 Z"/></g>
<g><path style="opacity:0.955" fill="#fefffe" d="M 1116.5,511.5 C 1144.57,511.574 1159.24,525.574 1160.5,553.5C 1160.79,568.583 1155.79,581.583 1145.5,592.5C 1148.17,596.5 1150.83,600.5 1153.5,604.5C 1148.95,608.698 1143.78,612.031 1138,614.5C 1134.9,610.644 1131.57,606.977 1128,603.5C 1109.69,609.51 1093.69,605.843 1080,592.5C 1069.36,574.297 1068.69,555.63 1078,536.5C 1086.82,521.82 1099.66,513.487 1116.5,511.5 Z M 1113.5,532.5 C 1129.54,530.701 1138.2,537.867 1139.5,554C 1138.95,561.358 1136.79,568.192 1133,574.5C 1129.48,568.778 1125.48,563.445 1121,558.5C 1115.71,561.621 1110.54,564.954 1105.5,568.5C 1109.17,573.833 1112.83,579.167 1116.5,584.5C 1101.19,586.206 1093.19,579.206 1092.5,563.5C 1092.94,548.442 1099.94,538.108 1113.5,532.5 Z"/></g>
<g><path style="opacity:0.949" fill="#fefffe" d="M 1605.5,511.5 C 1623.19,510.918 1635.69,518.584 1643,534.5C 1644.08,537.063 1644.58,539.729 1644.5,542.5C 1638.43,543.851 1632.43,545.518 1626.5,547.5C 1625.56,547.392 1624.72,547.059 1624,546.5C 1619.47,534.815 1610.97,530.315 1598.5,533C 1582.99,540.18 1576.49,552.347 1579,569.5C 1582.9,582.036 1591.4,587.203 1604.5,585C 1611.88,582.453 1617.21,577.62 1620.5,570.5C 1626.95,572.561 1632.95,575.395 1638.5,579C 1626.78,602.521 1608.11,610.854 1582.5,604C 1565.3,596.603 1556.63,583.437 1556.5,564.5C 1558.09,532.916 1574.43,515.25 1605.5,511.5 Z"/></g>
<g><path style="opacity:0.955" fill="#fefffe" d="M 1885.5,511.5 C 1913.6,511.604 1928.27,525.604 1929.5,553.5C 1929.42,576.498 1919.09,592.998 1898.5,603C 1879.74,609.659 1863.24,606.159 1849,592.5C 1840.09,578.156 1838.09,562.823 1843,546.5C 1850.17,526.153 1864.33,514.486 1885.5,511.5 Z M 1882.5,532.5 C 1898.54,530.701 1907.2,537.868 1908.5,554C 1907.81,571.848 1898.81,582.348 1881.5,585.5C 1868.62,584.297 1861.95,577.13 1861.5,564C 1861.71,548.685 1868.71,538.185 1882.5,532.5 Z"/></g>
<g><path style="opacity:0.949" fill="#fefffe" d="M 35.5,513.5 C 59.5,513.5 83.5,513.5 107.5,513.5C 106.642,519.931 105.309,526.265 103.5,532.5C 94.7569,532.873 86.2569,533.873 78,535.5C 73.1001,558.5 68.2667,581.5 63.5,604.5C 56.5,604.5 49.5,604.5 42.5,604.5C 47.0566,580.882 52.0566,557.382 57.5,534C 48.8397,533.5 40.1731,533.334 31.5,533.5C 32.4494,526.753 33.7827,520.086 35.5,513.5 Z"/></g>
<g><path style="opacity:0.947" fill="#fefffe" d="M 118.5,513.5 C 125.5,513.5 132.5,513.5 139.5,513.5C 137.325,525.199 134.992,536.865 132.5,548.5C 143.167,548.5 153.833,548.5 164.5,548.5C 166.705,536.806 169.039,525.14 171.5,513.5C 178.5,513.5 185.5,513.5 192.5,513.5C 186.657,543.216 180.49,572.883 174,602.5C 167.115,604.441 159.948,605.108 152.5,604.5C 155.09,592.548 157.424,580.548 159.5,568.5C 149.161,568.334 138.828,568.5 128.5,569C 125.774,580.46 123.107,591.96 120.5,603.5C 113.5,604.833 106.5,604.833 99.5,603.5C 106.09,573.551 112.423,543.551 118.5,513.5 Z"/></g>
<g><path style="opacity:0.944" fill="#fefffe" d="M 210.5,513.5 C 229.833,513.5 249.167,513.5 268.5,513.5C 267.679,519.939 266.345,526.273 264.5,532.5C 252.185,533.499 239.851,533.832 227.5,533.5C 226.885,538.576 225.885,543.576 224.5,548.5C 235.48,549.499 246.48,549.832 257.5,549.5C 256.714,555.808 255.381,561.975 253.5,568C 242.485,568.168 231.485,568.668 220.5,569.5C 219.115,574.424 218.115,579.424 217.5,584.5C 229.5,584.5 241.5,584.5 253.5,584.5C 252.679,590.939 251.345,597.273 249.5,603.5C 230.512,604.5 211.512,604.833 192.5,604.5C 198.499,574.172 204.499,543.839 210.5,513.5 Z"/></g>
<g><path style="opacity:0.951" fill="#fefffe" d="M 317.5,513.5 C 325.5,513.5 333.5,513.5 341.5,513.5C 347.501,531.167 354.334,548.501 362,565.5C 365.822,548.215 369.322,530.882 372.5,513.5C 379.5,513.5 386.5,513.5 393.5,513.5C 387.786,543.571 381.619,573.571 375,603.5C 368,604.833 361,604.833 354,603.5C 346.333,584.833 338.667,566.167 331,547.5C 326.715,566.424 322.882,585.424 319.5,604.5C 312.5,604.5 305.5,604.5 298.5,604.5C 304.454,574.063 310.787,543.73 317.5,513.5 Z"/></g>
<g><path style="opacity:0.944" fill="#fefffe" d="M 412.5,513.5 C 431.5,513.5 450.5,513.5 469.5,513.5C 468.867,520.167 467.533,526.667 465.5,533C 453.258,533.177 441.091,533.677 429,534.5C 427.955,539.399 426.788,544.232 425.5,549C 436.495,549.5 447.495,549.667 458.5,549.5C 457.372,555.809 456.372,562.142 455.5,568.5C 444.167,568.5 432.833,568.5 421.5,568.5C 420.5,573.833 419.5,579.167 418.5,584.5C 430.5,584.5 442.5,584.5 454.5,584.5C 453.867,591.167 452.533,597.667 450.5,604C 431.503,604.5 412.503,604.667 393.5,604.5C 399.454,574.063 405.787,543.73 412.5,513.5 Z"/></g>
<g><path style="opacity:0.938" fill="#fefffe" d="M 476.5,513.5 C 484.507,513.334 492.507,513.5 500.5,514C 504.462,522.76 508.296,531.593 512,540.5C 519.526,531.942 526.693,523.108 533.5,514C 542.5,513.333 551.5,513.333 560.5,514C 547.111,529.051 534.111,544.384 521.5,560C 528.07,574.542 534.737,589.042 541.5,603.5C 533.193,604.498 524.86,604.831 516.5,604.5C 513.386,595.604 509.719,586.938 505.5,578.5C 498.154,586.516 491.154,594.849 484.5,603.5C 475.5,604.833 466.5,604.833 457.5,603.5C 470.386,588.222 483.386,573.055 496.5,558C 489.41,543.323 482.743,528.489 476.5,513.5 Z"/></g>
<g><path style="opacity:0.915" fill="#fefffe" d="M 563.5,513.5 C 587.509,513.167 611.509,513.5 635.5,514.5C 633.691,520.735 632.358,527.069 631.5,533.5C 624.468,533.83 617.468,533.497 610.5,532.5C 606.667,526.833 602.833,521.167 599,515.5C 592.547,520.986 586.38,526.82 580.5,533C 573.167,533.667 565.833,533.667 558.5,533C 560.231,526.511 561.897,520.011 563.5,513.5 Z"/></g>
<g><path style="opacity:0.947" fill="#fefffe" d="M 679.5,513.5 C 686.5,513.5 693.5,513.5 700.5,513.5C 695.628,537.195 690.628,560.861 685.5,584.5C 698.184,584.168 710.851,584.501 723.5,585.5C 721.691,591.735 720.358,598.069 719.5,604.5C 699.833,604.5 680.167,604.5 660.5,604.5C 666.676,574.13 673.009,543.796 679.5,513.5 Z"/></g>
<g><path style="opacity:0.943" fill="#fefffe" d="M 749.5,513.5 C 768.833,513.5 788.167,513.5 807.5,513.5C 806.423,519.884 805.09,526.217 803.5,532.5C 791.185,533.499 778.851,533.832 766.5,533.5C 765.5,538.832 764.5,544.165 763.5,549.5C 774.5,549.5 785.5,549.5 796.5,549.5C 795.55,555.582 794.217,561.582 792.5,567.5C 781.5,568.167 770.5,568.833 759.5,569.5C 757.859,574.373 756.859,579.373 756.5,584.5C 768.5,584.5 780.5,584.5 792.5,584.5C 791.423,590.884 790.09,597.217 788.5,603.5C 769.175,604.666 749.842,604.833 730.5,604C 737.277,573.951 743.61,543.784 749.5,513.5 Z"/></g>
<g><path style="opacity:0.945" fill="#fefffe" d="M 813.5,513.5 C 820.833,513.5 828.167,513.5 835.5,513.5C 837.835,534.178 840.335,554.845 843,575.5C 854.254,555.326 865.254,534.993 876,514.5C 884.088,513.352 892.254,513.185 900.5,514C 883.46,543.915 866.293,573.748 849,603.5C 841.667,604.833 834.333,604.833 827,603.5C 822.359,573.511 817.859,543.511 813.5,513.5 Z"/></g>
<g><path style="opacity:0.944" fill="#fefffe" d="M 909.5,513.5 C 928.833,513.5 948.167,513.5 967.5,513.5C 966.642,519.931 965.309,526.265 963.5,532.5C 951.185,533.499 938.851,533.832 926.5,533.5C 925.756,538.885 924.756,544.218 923.5,549.5C 934.5,549.5 945.5,549.5 956.5,549.5C 955.482,555.759 954.149,561.925 952.5,568C 941.485,568.168 930.485,568.668 919.5,569.5C 918.023,574.408 917.023,579.408 916.5,584.5C 928.5,584.5 940.5,584.5 952.5,584.5C 951.642,590.931 950.309,597.265 948.5,603.5C 929.512,604.5 910.512,604.833 891.5,604.5C 897.34,574.138 903.34,543.805 909.5,513.5 Z"/></g>
<g><path style="opacity:0.947" fill="#fefffe" d="M 983.5,513.5 C 990.532,513.17 997.532,513.503 1004.5,514.5C 999.244,537.781 994.244,561.114 989.5,584.5C 1002.17,584.333 1014.84,584.5 1027.5,585C 1025.72,591.388 1024.39,597.888 1023.5,604.5C 1003.83,604.5 984.167,604.5 964.5,604.5C 970.454,574.063 976.787,543.73 983.5,513.5 Z"/></g>
<g><path style="opacity:0.949" fill="#fefffe" d="M 1180.5,513.5 C 1187.86,513.169 1195.2,513.503 1202.5,514.5C 1197.86,533.696 1193.86,553.03 1190.5,572.5C 1190.38,580.879 1194.54,585.213 1203,585.5C 1209.89,585.273 1214.56,581.939 1217,575.5C 1221.59,555.228 1225.92,534.894 1230,514.5C 1237.08,513.52 1244.25,513.187 1251.5,513.5C 1246.86,536.194 1242.03,558.861 1237,581.5C 1226.95,602.938 1210.45,610.438 1187.5,604C 1173.76,598.028 1167.59,587.528 1169,572.5C 1173,552.85 1176.83,533.183 1180.5,513.5 Z"/></g>
<g><path style="opacity:0.947" fill="#fefffe" d="M 1287.5,513.5 C 1295.5,513.5 1303.5,513.5 1311.5,513.5C 1316.16,543.788 1320.49,574.121 1324.5,604.5C 1317.47,604.83 1310.47,604.497 1303.5,603.5C 1302.62,597.952 1301.62,592.452 1300.5,587C 1289.83,586.333 1279.17,586.333 1268.5,587C 1265.17,592.667 1261.83,598.333 1258.5,604C 1250.81,604.831 1243.15,604.665 1235.5,603.5C 1252.85,573.473 1270.18,543.473 1287.5,513.5 Z M 1293.5,539.5 C 1294.12,539.611 1294.62,539.944 1295,540.5C 1295.92,548.887 1297.09,557.22 1298.5,565.5C 1292.19,566.664 1285.86,566.831 1279.5,566C 1284.57,557.35 1289.24,548.517 1293.5,539.5 Z"/></g>
<g><path style="opacity:0.947" fill="#fefffe" d="M 1351.5,513.5 C 1358.53,513.17 1365.53,513.503 1372.5,514.5C 1367.24,537.781 1362.24,561.114 1357.5,584.5C 1370.18,584.168 1382.85,584.501 1395.5,585.5C 1393.65,591.727 1392.32,598.061 1391.5,604.5C 1371.83,604.5 1352.17,604.5 1332.5,604.5C 1338.45,574.081 1344.78,543.747 1351.5,513.5 Z"/></g>
<g><path style="opacity:0.942" fill="#fefffe" d="M 1421.5,513.5 C 1428.5,513.5 1435.5,513.5 1442.5,513.5C 1436.97,543.612 1430.81,573.612 1424,603.5C 1416.89,604.812 1409.72,604.812 1402.5,603.5C 1409.35,573.606 1415.68,543.606 1421.5,513.5 Z"/></g>
<g><path style="opacity:0.95" fill="#fefffe" d="M 1461.5,513.5 C 1480.83,513.5 1500.17,513.5 1519.5,513.5C 1518.87,520.167 1517.53,526.667 1515.5,533C 1502.84,533.5 1490.17,533.667 1477.5,533.5C 1476.76,539.545 1475.76,545.545 1474.5,551.5C 1485.5,551.5 1496.5,551.5 1507.5,551.5C 1506.29,557.525 1504.96,563.525 1503.5,569.5C 1492.52,570.499 1481.52,570.832 1470.5,570.5C 1468.17,581.835 1465.83,593.168 1463.5,604.5C 1456.5,604.5 1449.5,604.5 1442.5,604.5C 1448.45,574.081 1454.78,543.747 1461.5,513.5 Z"/></g>
<g><path style="opacity:0.942" fill="#fefffe" d="M 1532.5,513.5 C 1539.5,513.5 1546.5,513.5 1553.5,513.5C 1547.66,543.216 1541.49,572.883 1535,602.5C 1528.11,604.441 1520.95,605.108 1513.5,604.5C 1519.71,574.139 1526.04,543.806 1532.5,513.5 Z"/></g>
<g><path style="opacity:0.946" fill="#fefffe" d="M 1685.5,513.5 C 1693.94,512.884 1702.11,513.551 1710,515.5C 1714.5,545.18 1719,574.846 1723.5,604.5C 1716.17,604.5 1708.83,604.5 1701.5,604.5C 1700.74,598.511 1700.07,592.511 1699.5,586.5C 1688.49,586.333 1677.49,586.5 1666.5,587C 1663.63,592.58 1660.63,598.08 1657.5,603.5C 1649.5,604.833 1641.5,604.833 1633.5,603.5C 1651.26,573.741 1668.59,543.741 1685.5,513.5 Z M 1692.5,538.5 C 1694.28,547.635 1695.61,556.968 1696.5,566.5C 1690.46,566.829 1684.46,566.496 1678.5,565.5C 1683.45,556.604 1688.11,547.604 1692.5,538.5 Z"/></g>
<g><path style="opacity:0.949" fill="#fefffe" d="M 1732.5,513.5 C 1756.84,513.167 1781.18,513.5 1805.5,514.5C 1803.65,520.727 1802.32,527.061 1801.5,533.5C 1792.83,533.5 1784.17,533.5 1775.5,533.5C 1770.83,557.167 1766.17,580.833 1761.5,604.5C 1754.5,604.5 1747.5,604.5 1740.5,604.5C 1744.91,580.788 1749.58,557.122 1754.5,533.5C 1745.81,533.831 1737.14,533.498 1728.5,532.5C 1730.31,526.265 1731.64,519.931 1732.5,513.5 Z"/></g>
<g><path style="opacity:0.942" fill="#fefffe" d="M 1816.5,513.5 C 1823.5,513.5 1830.5,513.5 1837.5,513.5C 1831.29,543.861 1824.96,574.194 1818.5,604.5C 1811.5,604.5 1804.5,604.5 1797.5,604.5C 1803.45,574.06 1809.79,543.726 1816.5,513.5 Z"/></g>
<g><path style="opacity:0.95" fill="#fefffe" d="M 1951.5,513.5 C 1959.53,513.169 1967.53,513.502 1975.5,514.5C 1982.24,531.873 1989.07,549.206 1996,566.5C 1999.64,549.113 2003.48,531.78 2007.5,514.5C 2014.47,513.503 2021.47,513.17 2028.5,513.5C 2022.01,543.801 2015.67,574.134 2009.5,604.5C 2002.47,604.83 1995.47,604.497 1988.5,603.5C 1980.9,585.207 1973.4,566.874 1966,548.5C 1961.14,566.952 1956.97,585.619 1953.5,604.5C 1946.5,604.5 1939.5,604.5 1932.5,604.5C 1938.96,574.194 1945.29,543.861 1951.5,513.5 Z"/></g>
<g><path style="opacity:0.94" fill="#fefffe" d="M 584.5,533.5 C 591.5,533.5 598.5,533.5 605.5,533.5C 600.993,557.196 596.326,580.863 591.5,604.5C 584.5,604.5 577.5,604.5 570.5,604.5C 575.166,580.837 579.833,557.171 584.5,533.5 Z"/></g>
</svg>
