<?xml version="1.0" standalone="no"?>
<!DOCTYPE svg PUBLIC "-//W3C//DTD SVG 20010904//EN"
 "http://www.w3.org/TR/2001/REC-SVG-20010904/DTD/svg10.dtd">
<svg version="1.0" xmlns="http://www.w3.org/2000/svg"
 width="2064.000000pt" height="430.000000pt" viewBox="0 0 2064.000000 430.000000"
 preserveAspectRatio="xMidYMid meet">

<g transform="translate(0.000000,430.000000) scale(0.100000,-0.100000)"
fill="#000000" stroke="none">
<path d="M19040 3990 c-545 -66 -1010 -404 -1193 -865 -57 -144 -80 -275 -74
-430 3 -113 8 -142 36 -224 37 -111 82 -189 154 -267 104 -114 248 -202 421
-258 43 -15 205 -50 360 -80 154 -30 307 -64 339 -76 189 -71 253 -229 167
-406 -58 -119 -195 -210 -362 -240 -98 -18 -271 -13 -363 11 -151 39 -271 130
-326 249 l-31 66 -375 0 -376 0 6 -92 c23 -363 255 -675 609 -820 182 -74 374
-103 641 -96 151 4 202 10 302 32 285 66 512 183 708 366 117 109 206 230 278
375 245 495 99 981 -361 1205 -124 60 -242 92 -560 155 -365 72 -425 98 -476
202 -23 47 -26 62 -22 126 11 176 168 332 384 383 85 20 273 15 350 -10 87
-27 170 -88 212 -156 l37 -59 365 0 c201 -1 371 3 377 7 16 10 1 157 -27 259
-93 341 -355 558 -760 627 -117 20 -339 28 -440 16z"/>
<path d="M525 3918 c-2 -7 -36 -161 -75 -343 -39 -181 -74 -340 -77 -352 l-5
-23 373 0 374 0 384 360 c211 198 387 360 390 360 3 0 116 -162 249 -360 l244
-360 348 0 c192 0 351 3 354 8 5 8 156 696 156 712 0 16 -2709 14 -2715 -2z"/>
<path d="M4405 3920 c-4 -6 -139 -761 -301 -1678 -161 -917 -296 -1677 -299
-1689 l-5 -23 1115 0 c613 0 1115 3 1115 8 0 4 27 160 60 347 33 187 60 348
60 358 0 16 -41 17 -730 17 l-730 0 5 23 c3 12 106 598 230 1302 124 704 228
1295 231 1313 l6 32 -375 0 c-247 0 -378 -4 -382 -10z"/>
<path d="M6971 3878 c-6 -29 -139 -784 -296 -1678 -158 -894 -289 -1635 -292
-1647 l-5 -23 1081 0 c595 0 1081 2 1081 5 0 3 27 159 60 346 33 187 60 347
60 355 0 12 -97 14 -695 14 -382 0 -695 3 -695 8 0 4 25 147 55 317 30 171 55
313 55 318 0 4 285 7 633 7 l633 0 57 328 c32 180 57 330 57 335 0 4 -284 7
-631 7 l-631 0 6 28 c10 46 106 592 106 602 0 6 250 10 698 10 l698 0 62 353
c34 193 62 355 62 360 0 4 -483 7 -1074 7 l-1075 0 -10 -52z"/>
<path d="M9410 3916 c0 -7 144 -770 320 -1695 176 -924 320 -1683 320 -1686 0
-3 177 -5 393 -5 l394 0 911 1682 c501 926 914 1691 918 1701 6 16 -16 17
-397 15 l-402 -3 -611 -1187 c-421 -818 -613 -1181 -618 -1170 -4 9 -93 537
-198 1172 -105 635 -194 1163 -196 1173 -5 16 -34 17 -420 17 -341 0 -414 -2
-414 -14z"/>
<path d="M12965 3918 c-3 -10 -572 -3230 -592 -3356 l-6 -32 1079 0 1079 0 59
332 c32 183 60 345 63 361 l6 27 -697 0 c-642 0 -696 1 -696 17 0 15 94 560
105 611 l5 22 630 0 630 0 5 23 c17 68 112 633 108 640 -2 4 -285 7 -629 7
-414 0 -624 3 -624 10 0 11 84 494 101 577 l10 53 697 2 696 3 62 350 c34 193
60 353 57 358 -2 4 -486 7 -1074 7 -847 0 -1070 -3 -1074 -12z"/>
<path d="M15406 3903 c-3 -16 -136 -768 -296 -1673 -159 -905 -292 -1657 -296
-1672 l-6 -28 1114 0 1114 0 62 358 c35 196 63 360 62 365 0 4 -328 7 -730 7
-401 0 -730 1 -730 3 0 1 105 598 234 1327 129 729 232 1328 229 1333 -2 4
-172 7 -378 7 l-373 0 -6 -27z"/>
<path d="M1352 3128 c-6 -29 -130 -620 -276 -1313 -146 -693 -266 -1268 -266
-1277 0 -17 23 -18 374 -18 206 0 377 3 380 8 2 4 128 592 280 1307 152 715
278 1310 281 1323 l5 22 -383 0 -384 0 -11 -52z"/>
<path d="M2550 2493 c0 -5 -25 -145 -54 -313 -30 -168 -52 -308 -50 -312 7
-10 1021 -10 1028 0 2 4 27 138 55 297 28 160 53 300 56 313 l5 22 -520 0
c-286 0 -520 -3 -520 -7z"/>
</g>
</svg>
